<svg id="visual" viewBox="0 0 320 102" width="320" height="102" xmlns="http://www.w3.org/2000/svg" xmlnsXlink="http://www.w3.org/1999/xlink" version="1.1"><path d="M0 33L6 32.2C12 31.3 24 29.7 35.8 29.3C47.7 29 59.3 30 71.2 37.7C83 45.3 95 59.7 106.8 66.3C118.7 73 130.3 72 142.2 64.5C154 57 166 43 177.8 42.8C189.7 42.7 201.3 56.3 213.2 62.5C225 68.7 237 67.3 248.8 65.5C260.7 63.7 272.3 61.3 284.2 58.2C296 55 308 51 314 49L320 47L320 0L314 0C308 0 296 0 284.2 0C272.3 0 260.7 0 248.8 0C237 0 225 0 213.2 0C201.3 0 189.7 0 177.8 0C166 0 154 0 142.2 0C130.3 0 118.7 0 106.8 0C95 0 83 0 71.2 0C59.3 0 47.7 0 35.8 0C24 0 12 0 6 0L0 0Z" fill="#006466" stroke-linecap="round" stroke-linejoin="miter"></path></svg>